<?xml version="1.0" encoding="utf-8"?>
<!-- Generator: Adobe Illustrator 24.0.0, SVG Export Plug-In . SVG Version: 6.00 Build 0)  -->
<svg version="1.1" id="图层_1" xmlns="http://www.w3.org/2000/svg" xmlns:xlink="http://www.w3.org/1999/xlink" x="0px" y="0px"
	 viewBox="0 0 1715 505.8" style="enable-background:new 0 0 1715 505.8;" xml:space="preserve">
<style type="text/css">
	.st0{fill:#D73F3D;}
	.st1{fill:#FFFFFF;}
	.st2{fill:#CC3F3C;}
</style>
<path class="st0" d="M189.4,47.6c0,0-76.8,79.7-45.3,172.8c5.6,16.7,9.6,33.9,10.6,51.6c1.3,25.1-1.7,55-21.9,64.2
	c0,0-42.2,7.2-31.9-74.1c0,0,4-23.1,17.5-36.7c0,0-34.8,19.6-56.8,53.4c-11.5,17.7-15.3,39.4-10.6,60c6.1,26.8,22.7,67,67.4,97.1
	c0,0,34.4,25.4,88.9,28.6c0,0,85.2-65,68.9-158.6c0,0-8.9-39.1-31.9-72.1c-5.6-8-11.1-16.1-16.2-24.4c-16-26-44.3-74.9-44.3-95.5
	C183.8,113.8,176.6,85.9,189.4,47.6z"/>
<path class="st1" d="M240.9,461.3c0,0,43-35.2,55.8-102.2c0,0,10.2-48.5-5.8-85.3c-4.4-10.1-6.5-21.1-4.3-31.9
	c1.9-9.5,6.2-21.5,15-34.8c0,0,0.1,10.1,2,21.9c2.4,14.6,9.7,27.9,20.4,38.1c11.6,11.1,29.3,29.1,38,43.5c3.9,6.3,5.4,13.8,4.3,21.2
	c-2.6,18.2-13.2,60.6-57.4,99.3C308.9,431.1,274.4,455.7,240.9,461.3z"/>
<path class="st1" d="M187,0.1c-1.5-1.8,7.9,18.8,24.7,42.9c8.6,12.3,14.1,26.4,15.9,41.3c1.8,14.8,1.7,32.7-5.3,46.5
	c-3.5,6.9-3.9,14.9-0.8,21.9c5.1,11.6,13.6,28.9,25.1,42.7c0,0,47-70.9,13.5-120.4c0,0-11.4-20.7-42.2-47.8
	C217.9,27.2,200.8,16,187,0.1z"/>
<g>
	<path class="st1" d="M207.3,505.8C93,505.8,0,412.9,0,298.5C0,220.9,49.1,133.7,128,109l-6.2,24.6C60,165.8,21.6,228.9,21.6,298.5
		c0,102.4,83.3,185.7,185.7,185.7c102.4,0,185.7-83.3,185.7-185.7c0-69.7-38.5-133-100.5-165.1l-0.3-24.5
		c74.4,28.7,122.4,111.7,122.4,189.5C414.6,412.9,321.6,505.8,207.3,505.8z"/>
</g>
<path class="st2" d="M485,218.6h106.7v26.6h-77.3v43.4h72.8v26.6h-72.8v68.6H485V218.6z"/>
<path class="st2" d="M601.3,233.7c0-4.5,1.7-8.4,5-11.8c3.3-3.3,7.6-5,12.7-5c5.1,0,9.5,1.6,13,4.8c3.5,3.2,5.2,7.2,5.2,12
	c0,4.8-1.8,8.8-5.2,12s-7.8,4.8-13,4.8c-5.1,0-9.4-1.7-12.7-5C602.9,242.2,601.3,238.2,601.3,233.7z M605.2,271.8h28v112.1h-28
	V271.8z"/>
<path class="st2" d="M653.8,271.8h28v17.7h0.5c3.1-6.5,7.5-11.6,13.3-15.2c5.8-3.6,12.4-5.4,19.8-5.4c1.7,0,3.4,0.2,5,0.5
	c1.6,0.3,3.3,0.7,5,1.2v27.1c-2.3-0.6-4.6-1.1-6.9-1.5c-2.3-0.4-4.5-0.6-6.7-0.6c-6.5,0-11.8,1.2-15.8,3.6c-4,2.4-7,5.2-9.1,8.3
	c-2.1,3.1-3.5,6.2-4.2,9.3c-0.7,3.1-1,5.5-1,7v60h-28L653.8,271.8L653.8,271.8z"/>
<path class="st2" d="M751.1,337.6c0.9,8.4,4.2,14.9,9.8,19.6c5.6,4.7,12.4,7,20.3,7c7,0,12.9-1.4,17.6-4.3
	c4.8-2.9,8.9-6.5,12.5-10.9l20.1,15.2c-6.5,8.1-13.8,13.9-21.9,17.3c-8.1,3.4-16.6,5.1-25.5,5.1c-8.4,0-16.3-1.4-23.8-4.2
	c-7.5-2.8-13.9-6.8-19.4-11.9c-5.5-5.1-9.8-11.3-13-18.6s-4.8-15.3-4.8-24.2s1.6-16.9,4.8-24.2s7.5-13.4,13-18.6
	c5.5-5.1,11.9-9.1,19.4-11.9c7.5-2.8,15.4-4.2,23.8-4.2c7.8,0,14.9,1.4,21.4,4.1c6.5,2.7,12,6.6,16.6,11.8s8.2,11.5,10.7,19
	c2.6,7.5,3.8,16.2,3.8,26v7.7L751.1,337.6L751.1,337.6z M808.6,316.6c-0.2-8.2-2.7-14.7-7.7-19.5c-5-4.8-11.9-7.1-20.8-7.1
	c-8.4,0-15.1,2.4-20,7.2s-7.9,11.3-9,19.4L808.6,316.6L808.6,316.6z"/>
<path class="st1" d="M911,218.6h55.6c7.9,0,15.6,0.8,23,2.3c7.4,1.6,13.9,4.2,19.5,7.8c5.6,3.7,10.1,8.6,13.4,14.7
	c3.3,6.1,5,13.8,5,23c0,10.4-1.8,18.8-5.4,25.2c-3.6,6.4-8.4,11.3-14.5,14.8c-6.1,3.5-13.1,5.9-21.1,7.1c-8,1.2-16.4,1.9-25.1,1.9
	h-21v68.4H911L911,218.6L911,218.6z M958.2,290.2c4.2,0,8.6-0.1,13.1-0.5c4.5-0.3,8.7-1.2,12.5-2.8c3.8-1.5,6.9-3.9,9.3-7
	c2.4-3.1,3.6-7.5,3.6-13.1c0-5.1-1.1-9.2-3.3-12.3c-2.2-3-5-5.4-8.4-7c-3.4-1.6-7.2-2.7-11.4-3.1s-8.2-0.7-12.1-0.7h-21v46.5
	L958.2,290.2L958.2,290.2z"/>
<path class="st1" d="M1039.4,271.8h28v17.7h0.5c3.1-6.5,7.6-11.6,13.3-15.2c5.8-3.6,12.4-5.4,19.8-5.4c1.7,0,3.4,0.2,5,0.5
	c1.6,0.3,3.3,0.7,5,1.2v27.1c-2.3-0.6-4.6-1.1-6.9-1.5c-2.3-0.4-4.5-0.6-6.7-0.6c-6.5,0-11.8,1.2-15.8,3.6s-7,5.2-9.1,8.3
	c-2.1,3.1-3.5,6.2-4.2,9.3c-0.7,3.1-1.1,5.5-1.1,7v60h-28L1039.4,271.8L1039.4,271.8z"/>
<path class="st1" d="M1108.8,327.8c0-8.9,1.6-16.9,4.8-24.2c3.2-7.2,7.5-13.4,13-18.6c5.4-5.1,11.9-9.1,19.4-11.9
	c7.5-2.8,15.4-4.2,23.8-4.2s16.3,1.4,23.8,4.2c7.5,2.8,13.9,6.8,19.4,11.9c5.4,5.1,9.8,11.3,13,18.6s4.8,15.3,4.8,24.2
	s-1.6,16.9-4.8,24.2c-3.2,7.2-7.5,13.4-13,18.6c-5.4,5.1-11.9,9.1-19.4,11.9c-7.5,2.8-15.4,4.2-23.8,4.2s-16.3-1.4-23.8-4.2
	c-7.5-2.8-13.9-6.8-19.4-11.9c-5.4-5.1-9.8-11.3-13-18.6C1110.4,344.7,1108.8,336.7,1108.8,327.8z M1136.8,327.8
	c0,4.4,0.7,8.6,2.2,12.6s3.7,7.6,6.5,10.7c2.9,3.1,6.3,5.6,10.4,7.5c4,1.9,8.6,2.8,13.8,2.8c5.1,0,9.7-0.9,13.8-2.8
	s7.5-4.4,10.4-7.5c2.9-3.1,5.1-6.7,6.5-10.7s2.2-8.2,2.2-12.6s-0.7-8.6-2.2-12.6c-1.5-4-3.7-7.6-6.5-10.7c-2.9-3.1-6.3-5.6-10.4-7.5
	s-8.6-2.8-13.8-2.8s-9.7,0.9-13.8,2.8c-4.1,1.9-7.5,4.4-10.4,7.5c-2.9,3.1-5.1,6.7-6.5,10.7C1137.5,319.2,1136.8,323.5,1136.8,327.8
	z"/>
<path class="st1" d="M1232,295.6v-23.8h23.1v-32.4h28v32.4h30.8v23.8h-30.8v49c0,5.6,1.1,10,3.2,13.3s6.3,4.9,12.5,4.9
	c2.5,0,5.2-0.3,8.2-0.8c2.9-0.5,5.3-1.4,7-2.7v23.6c-3,1.4-6.6,2.4-10.9,2.9c-4.3,0.5-8.1,0.8-11.3,0.8c-7.5,0-13.6-0.8-18.3-2.5
	c-4.8-1.6-8.5-4.1-11.2-7.5c-2.7-3.4-4.6-7.5-5.6-12.5c-1-5-1.5-10.7-1.5-17.3v-51.4L1232,295.6L1232,295.6z"/>
<path class="st1" d="M1318.6,327.8c0-8.9,1.6-16.9,4.8-24.2c3.2-7.2,7.5-13.4,13-18.6c5.4-5.1,11.9-9.1,19.4-11.9
	c7.5-2.8,15.4-4.2,23.8-4.2s16.3,1.4,23.8,4.2c7.5,2.8,13.9,6.8,19.4,11.9c5.4,5.1,9.8,11.3,13,18.6s4.8,15.3,4.8,24.2
	s-1.6,16.9-4.8,24.2c-3.2,7.2-7.5,13.4-13,18.6c-5.4,5.1-11.9,9.1-19.4,11.9c-7.5,2.8-15.4,4.2-23.8,4.2s-16.3-1.4-23.8-4.2
	c-7.5-2.8-13.9-6.8-19.4-11.9c-5.4-5.1-9.8-11.3-13-18.6C1320.2,344.7,1318.6,336.7,1318.6,327.8z M1346.6,327.8
	c0,4.4,0.7,8.6,2.2,12.6s3.7,7.6,6.5,10.7c2.9,3.1,6.3,5.6,10.4,7.5c4,1.9,8.6,2.8,13.8,2.8c5.1,0,9.7-0.9,13.8-2.8
	s7.5-4.4,10.4-7.5c2.9-3.1,5.1-6.7,6.5-10.7s2.2-8.2,2.2-12.6s-0.7-8.6-2.2-12.6c-1.5-4-3.7-7.6-6.5-10.7c-2.9-3.1-6.3-5.6-10.4-7.5
	s-8.6-2.8-13.8-2.8s-9.7,0.9-13.8,2.8c-4.1,1.9-7.5,4.4-10.4,7.5c-2.9,3.1-5.1,6.7-6.5,10.7C1347.4,319.2,1346.6,323.5,1346.6,327.8
	z"/>
<path class="st1" d="M1531.5,305.4c-3.3-3.4-6.7-6.1-10.3-8.2c-3.6-2-7.2-3-11-3c-5.1,0-9.7,0.9-13.8,2.8c-4.1,1.9-7.5,4.4-10.4,7.5
	c-2.9,3.1-5.1,6.7-6.5,10.7s-2.2,8.2-2.2,12.6s0.7,8.6,2.2,12.6s3.7,7.6,6.5,10.7c2.9,3.1,6.3,5.6,10.4,7.5c4,1.9,8.6,2.8,13.8,2.8
	c4.4,0,8.4-0.9,12.1-2.7c3.7-1.8,6.9-4.4,9.6-7.8l18.7,20.1c-2.8,2.8-6,5.2-9.7,7.2c-3.7,2-7.3,3.7-11.1,4.9
	c-3.7,1.2-7.3,2.1-10.7,2.7c-3.4,0.5-6.4,0.8-8.9,0.8c-8.4,0-16.3-1.4-23.8-4.2c-7.5-2.8-13.9-6.8-19.4-11.9
	c-5.4-5.1-9.8-11.3-13-18.6s-4.8-15.3-4.8-24.2s1.6-16.9,4.8-24.2c3.2-7.2,7.5-13.4,13-18.6c5.4-5.1,11.9-9.1,19.4-11.9
	c7.5-2.8,15.4-4.2,23.8-4.2c7.2,0,14.4,1.4,21.6,4.1c7.2,2.7,13.6,7,19,13L1531.5,305.4z"/>
<path class="st1" d="M1550.2,327.8c0-8.9,1.6-16.9,4.8-24.2c3.2-7.2,7.5-13.4,13-18.6c5.4-5.1,11.9-9.1,19.4-11.9
	c7.5-2.8,15.4-4.2,23.8-4.2s16.3,1.4,23.8,4.2c7.5,2.8,13.9,6.8,19.4,11.9c5.4,5.1,9.8,11.3,13,18.6s4.8,15.3,4.8,24.2
	s-1.6,16.9-4.8,24.2c-3.2,7.2-7.5,13.4-13,18.6c-5.4,5.1-11.9,9.1-19.4,11.9c-7.5,2.8-15.4,4.2-23.8,4.2s-16.3-1.4-23.8-4.2
	c-7.5-2.8-13.9-6.8-19.4-11.9c-5.4-5.1-9.8-11.3-13-18.6C1551.8,344.7,1550.2,336.7,1550.2,327.8z M1578.2,327.8
	c0,4.4,0.7,8.6,2.2,12.6s3.7,7.6,6.5,10.7c2.9,3.1,6.3,5.6,10.4,7.5c4,1.9,8.6,2.8,13.8,2.8c5.1,0,9.7-0.9,13.8-2.8
	s7.5-4.4,10.4-7.5c2.9-3.1,5.1-6.7,6.5-10.7s2.2-8.2,2.2-12.6s-0.7-8.6-2.2-12.6c-1.5-4-3.7-7.6-6.5-10.7c-2.9-3.1-6.3-5.6-10.4-7.5
	s-8.6-2.8-13.8-2.8s-9.7,0.9-13.8,2.8c-4.1,1.9-7.5,4.4-10.4,7.5c-2.9,3.1-5.1,6.7-6.5,10.7C1578.9,319.2,1578.2,323.5,1578.2,327.8
	z"/>
<path class="st1" d="M1687,207.4h28v176.5h-28V207.4z"/>
</svg>
